<svg id="Capa_1" enable-background="new 0 0 511.034 511.034" height="512" viewBox="0 0 511.034 511.034" width="512" xmlns="http://www.w3.org/2000/svg"><g><path d="m255.517 0-221.284 127.758v255.517l221.284 127.759 221.284-127.759v-255.517zm15 151.418h135.303l-135.304 78.118v-78.118zm-30 78.118-135.304-78.118h135.304zm-14.499 26.27-68.059 39.08-67.876-117.563zm14.499 26.267v155.802l-67.557-117.01zm30-.576 67.652 39.059-67.652 117.177zm15-25.98 135.304-78.118-67.652 117.177zm-15-134.099v-78.117l135.304 78.118h-135.304zm-30 0h-135.304l135.304-78.118zm-176.284 71.132 67.711 117.275-67.711 38.88zm82.71 143.255 67.469 116.857-135.118-78.012zm217.206-.249 67.652 39.059-135.304 78.118zm15-25.981 67.652-117.177v156.235z" fill="#ffb655"/><path d="m255.517 0v511.034l221.284-127.759v-255.517zm15 43.301 135.304 78.118h-135.304zm0 108.117h135.303l-135.304 78.118v-78.118zm150.304 25.981-67.652 117.177-67.652-39.059zm-150.304 104.098 67.652 39.059-67.652 117.177zm25.98 171.236 67.652-117.177 67.652 39.059zm150.304-104.099-67.652-39.059 67.652-117.177z" fill="#ff7c48"/></g></svg>