<?xml version="1.0" encoding="UTF-8"?>
<svg width="636px" height="107px" viewBox="0 0 636 107" version="1.1" xmlns="http://www.w3.org/2000/svg" xmlns:xlink="http://www.w3.org/1999/xlink">
    <title>HEXHUB</title>
    <defs>
        <path d="M84.2349406,106.186087 C85.9509406,106.186087 87.4719406,105.523087 88.7979406,104.197087 C90.1239406,102.871087 90.7869406,101.350087 90.7869406,99.6340868 L90.7869406,99.6340868 L90.7869406,6.9700868 C90.7869406,5.2540868 90.1239406,3.7330868 88.7979406,2.4070868 C87.4719406,1.0810868 85.9509406,0.418086803 84.2349406,0.418086803 C82.4669406,0.418086803 80.9329406,1.0810868 79.6329406,2.4070868 C78.3329406,3.7330868 77.6829406,5.2540868 77.6829406,6.9700868 L77.6829406,6.9700868 L77.6829406,46.1260868 L14.0349406,46.1260868 L14.0349406,6.9700868 C14.0349406,5.2540868 13.3719406,3.7330868 12.0459406,2.4070868 C10.7199406,1.0810868 9.19894063,0.418086803 7.48294063,0.418086803 C5.76694063,0.418086803 4.24594063,1.0810868 2.91994063,2.4070868 C1.59394063,3.7330868 0.930940626,5.2540868 0.930940626,6.9700868 L0.930940626,6.9700868 L0.930940626,99.6340868 C0.930940626,101.350087 1.59394063,102.871087 2.91994063,104.197087 C4.24594063,105.523087 5.76694063,106.186087 7.48294063,106.186087 C9.19894063,106.186087 10.7199406,105.523087 12.0459406,104.197087 C13.3719406,102.871087 14.0349406,101.350087 14.0349406,99.6340868 L14.0349406,99.6340868 L14.0349406,59.2300868 L77.6829406,59.2300868 L77.6829406,99.6340868 C77.6829406,101.350087 78.3329406,102.871087 79.6329406,104.197087 C80.9329406,105.523087 82.4669406,106.186087 84.2349406,106.186087 Z M185.790941,106.186087 C190.158941,106.186087 192.342941,104.002087 192.342941,99.6340868 C192.342941,95.2660868 190.158941,93.0820868 185.790941,93.0820868 L185.790941,93.0820868 L136.338941,93.0820868 L136.338941,59.3860868 L167.382941,59.3860868 C171.750941,59.3860868 173.934941,57.2020868 173.934941,52.8340868 C173.934941,48.4660868 171.750941,46.2820868 167.382941,46.2820868 L167.382941,46.2820868 L136.338941,46.2820868 L136.338941,13.5220868 L185.790941,13.5220868 C190.158941,13.5220868 192.342941,11.3380868 192.342941,6.9700868 C192.342941,2.6020868 190.158941,0.418086803 185.790941,0.418086803 L185.790941,0.418086803 L129.786941,0.418086803 C125.418941,0.418086803 123.234941,2.6020868 123.234941,6.9700868 L123.234941,6.9700868 L123.234941,99.6340868 C123.234941,104.002087 125.418941,106.186087 129.786941,106.186087 L129.786941,106.186087 L185.790941,106.186087 Z M276.738941,103.066087 C279.182941,106.654087 282.198941,107.226087 285.786941,104.782087 C289.374941,102.130087 289.946941,99.0100868 287.502941,95.4220868 L287.502941,95.4220868 L258.018941,53.9260868 L288.750941,11.1820868 C291.246941,7.7500868 290.726941,4.7340868 287.190941,2.1340868 C283.862941,-0.413913197 280.846941,0.0540868027 278.142941,3.5380868 L278.142941,3.5380868 L250.062941,42.6940868 L222.138941,3.5380868 C219.694941,-0.0499131973 216.678941,-0.621913197 213.090941,1.8220868 C209.606941,4.5260868 209.034941,7.5940868 211.374941,11.0260868 L211.374941,11.0260868 L241.482941,53.4580868 L212.934941,95.5780868 C210.490941,99.3220868 211.010941,102.390087 214.494941,104.782087 C218.238941,107.122087 221.306941,106.602087 223.698941,103.222087 L223.698941,103.222087 L249.594941,64.8460868 L276.738941,103.066087 Z M398.262941,106.186087 C399.978941,106.186087 401.499941,105.523087 402.825941,104.197087 C404.151941,102.871087 404.814941,101.350087 404.814941,99.6340868 L404.814941,99.6340868 L404.814941,6.9700868 C404.814941,5.2540868 404.151941,3.7330868 402.825941,2.4070868 C401.499941,1.0810868 399.978941,0.418086803 398.262941,0.418086803 C396.494941,0.418086803 394.960941,1.0810868 393.660941,2.4070868 C392.360941,3.7330868 391.710941,5.2540868 391.710941,6.9700868 L391.710941,6.9700868 L391.710941,46.1260868 L328.062941,46.1260868 L328.062941,6.9700868 C328.062941,5.2540868 327.399941,3.7330868 326.073941,2.4070868 C324.747941,1.0810868 323.226941,0.418086803 321.510941,0.418086803 C319.794941,0.418086803 318.273941,1.0810868 316.947941,2.4070868 C315.621941,3.7330868 314.958941,5.2540868 314.958941,6.9700868 L314.958941,6.9700868 L314.958941,99.6340868 C314.958941,101.350087 315.621941,102.871087 316.947941,104.197087 C318.273941,105.523087 319.794941,106.186087 321.510941,106.186087 C323.226941,106.186087 324.747941,105.523087 326.073941,104.197087 C327.399941,102.871087 328.062941,101.350087 328.062941,99.6340868 L328.062941,99.6340868 L328.062941,59.2300868 L391.710941,59.2300868 L391.710941,99.6340868 C391.710941,101.350087 392.360941,102.871087 393.660941,104.197087 C394.960941,105.523087 396.494941,106.186087 398.262941,106.186087 Z M490.146941,106.186087 C502.106941,106.186087 510.920941,103.339087 516.588941,97.6450868 C522.256941,91.9510868 525.090941,83.1500868 525.090941,71.2420868 L525.090941,71.2420868 L525.090941,6.9700868 C525.090941,4.7860868 524.544941,3.1480868 523.452941,2.0560868 C522.360941,0.964086803 520.722941,0.418086803 518.538941,0.418086803 C516.354941,0.418086803 514.716941,0.964086803 513.624941,2.0560868 C512.532941,3.1480868 511.986941,4.7860868 511.986941,6.9700868 L511.986941,6.9700868 L511.986941,71.2420868 C511.986941,76.8060868 511.323941,81.1740868 509.997941,84.3460868 C508.671941,87.5180868 506.422941,89.7670868 503.250941,91.0930868 C500.078941,92.4190868 495.710941,93.0820868 490.146941,93.0820868 L490.146941,93.0820868 L471.426941,93.0820868 C465.862941,93.0820868 461.494941,92.4190868 458.322941,91.0930868 C455.150941,89.7670868 452.901941,87.5180868 451.575941,84.3460868 C450.249941,81.1740868 449.586941,76.8060868 449.586941,71.2420868 L449.586941,71.2420868 L449.586941,6.9700868 C449.586941,4.7860868 449.040941,3.1480868 447.948941,2.0560868 C446.856941,0.964086803 445.218941,0.418086803 443.034941,0.418086803 C440.850941,0.418086803 439.212941,0.964086803 438.120941,2.0560868 C437.028941,3.1480868 436.482941,4.7860868 436.482941,6.9700868 L436.482941,6.9700868 L436.482941,71.2420868 C436.482941,83.1500868 439.329941,91.9510868 445.023941,97.6450868 C450.717941,103.339087 459.518941,106.186087 471.426941,106.186087 L471.426941,106.186087 L490.146941,106.186087 Z M606.054941,106.186087 C615.570941,106.186087 622.863941,103.690087 627.933941,98.6980868 C633.003941,93.7060868 635.538941,86.4260868 635.538941,76.8580868 L635.538941,76.8580868 L635.538941,71.5540868 C635.538941,59.2820868 631.404941,50.8320868 623.136941,46.2040868 C627.556941,42.3560868 629.766941,36.9220868 629.766941,29.9020868 L629.766941,29.9020868 L629.766941,25.6900868 C629.766941,17.5780868 627.543941,11.3380868 623.097941,6.9700868 C618.651941,2.6020868 612.294941,0.418086803 604.026941,0.418086803 L604.026941,0.418086803 L563.310941,0.418086803 C558.942941,0.418086803 556.758941,2.6020868 556.758941,6.9700868 L556.758941,6.9700868 L556.758941,99.6340868 C556.758941,104.002087 558.942941,106.186087 563.310941,106.186087 L563.310941,106.186087 L606.054941,106.186087 Z M606.834941,42.3820868 L569.862941,42.3820868 L569.862941,13.5220868 L604.026941,13.5220868 C608.706941,13.5220868 611.982941,14.4190868 613.854941,16.2130868 C615.726941,18.0070868 616.662941,21.1660868 616.662941,25.6900868 L616.662941,25.6900868 L616.662941,29.9020868 C616.662941,33.5420868 615.973941,36.5320868 614.595941,38.8720868 C613.217941,41.2120868 610.630941,42.3820868 606.834941,42.3820868 L606.834941,42.3820868 Z M606.054941,93.0820868 L569.862941,93.0820868 L569.862941,55.4860868 L606.054941,55.4860868 C612.086941,55.4860868 616.324941,56.7210868 618.768941,59.1910868 C621.212941,61.6610868 622.434941,65.7820868 622.434941,71.5540868 L622.434941,71.5540868 L622.434941,76.8580868 C622.434941,82.6300868 621.173941,86.7770868 618.651941,89.2990868 C616.129941,91.8210868 611.930941,93.0820868 606.054941,93.0820868 L606.054941,93.0820868 Z" id="path-1"></path>
    </defs>
    <g id="Page-1" stroke="none" stroke-width="1" fill="white" fill-rule="evenodd">
        <g id="hexhub-name" fill="#white" fill-rule="nonzero">
            <g id="HEXHUB">
                <use xlink:href="#path-1"></use>
                <use xlink:href="#path-1"></use>
            </g>
        </g>
    </g>
</svg>