<?xml version="1.0" standalone="no"?>
<!DOCTYPE svg PUBLIC "-//W3C//DTD SVG 20010904//EN"
 "http://www.w3.org/TR/2001/REC-SVG-20010904/DTD/svg10.dtd">
<svg version="1.0" xmlns="http://www.w3.org/2000/svg"
 width="1050.000000pt" height="600.000000pt" viewBox="0 0 1050.000000 600.000000"
 preserveAspectRatio="xMidYMid meet">
<metadata>
Created by potrace 1.16, written by Peter Selinger 2001-2019
</metadata>
<g transform="translate(0.000000,600.000000) scale(0.100000,-0.100000)"
fill="#0054F6" stroke="none">
<path d="M4975 5835 c-149 -85 -736 -424 -1305 -753 l-1035 -598 -3 -1485 -2
-1486 422 -243 c496 -286 1972 -1138 2104 -1215 l92 -53 1213 700 c668 385
1255 723 1304 752 l90 52 3 1490 2 1490 -1303 752 c-717 414 -1306 752 -1308
752 -2 0 -126 -70 -274 -155z m1275 -1073 l985 -570 0 -1193 0 -1194 -993
-573 -992 -572 -993 572 -992 573 0 1194 0 1193 890 514 c490 283 935 541 990
574 55 32 105 57 110 55 6 -1 453 -259 995 -573z"/>
<path d="M4546 3701 l-209 -210 188 -195 188 -196 213 0 214 0 0 213 0 212
-193 193 -192 192 -209 -209z"/>
<path d="M5552 3717 l-192 -192 0 -213 0 -212 213 1 212 1 190 194 189 195
-210 209 -209 210 -193 -193z"/>
<path d="M4530 2695 l-195 -195 213 -213 213 -212 190 192 189 193 0 215 0
215 -208 0 -207 0 -195 -195z"/>
<path d="M5360 2678 l1 -213 190 -194 191 -194 211 211 212 212 -195 195 -195
195 -207 0 -208 0 0 -212z"/>
</g>
</svg>
