<?xml version="1.0" encoding="UTF-8"?>
<svg width="948px" height="224px" viewBox="0 0 948 224" version="1.1" xmlns="http://www.w3.org/2000/svg" xmlns:xlink="http://www.w3.org/1999/xlink">
    <title>hexhub-logo</title>
    <defs>
        <filter id="filter-1">
            <feColorMatrix in="SourceGraphic" type="matrix" values="0 0 0 0 0.000000 0 0 0 0 0.329412 0 0 0 0 0.964706 0 0 0 1.000000 0"></feColorMatrix>
        </filter>
        <path d="M92.5728765,119.065445 C94.193898,119.065445 95.5447491,118.52441 96.6254301,117.442341 C97.706111,116.360271 98.2464515,115.007685 98.2464515,113.384581 L98.2464515,113.384581 L98.2464515,6.53023291 C98.2464515,4.9071289 97.706111,3.55454222 96.6254301,2.47247288 C95.5447491,1.39040353 94.193898,0.849368862 92.5728765,0.849368862 C90.9518551,0.849368862 89.6010039,1.39040353 88.520323,2.47247288 C87.439642,3.55454222 86.8993016,4.9071289 86.8993016,6.53023291 L86.8993016,6.53023291 L86.8993016,53.5100769 L12.0621459,53.5100769 L12.0621459,6.53023291 C12.0621459,4.9071289 11.5218055,3.55454222 10.4411245,2.47247288 C9.36044356,1.39040353 8.00959238,0.849368862 6.38857096,0.849368862 C4.76754953,0.849368862 3.41669835,1.39040353 2.3360174,2.47247288 C1.25533645,3.55454222 0.714995981,4.9071289 0.714995981,6.53023291 L0.714995981,6.53023291 L0.714995981,113.384581 C0.714995981,115.007685 1.25533645,116.360271 2.3360174,117.442341 C3.41669835,118.52441 4.76754953,119.065445 6.38857096,119.065445 C8.00959238,119.065445 9.36044356,118.52441 10.4411245,117.442341 C11.5218055,116.360271 12.0621459,115.007685 12.0621459,113.384581 L12.0621459,113.384581 L12.0621459,64.871805 L86.8993016,64.871805 L86.8993016,113.384581 C86.8993016,115.007685 87.439642,116.360271 88.520323,117.442341 C89.6010039,118.52441 90.9518551,119.065445 92.5728765,119.065445 Z M205.413979,119.065445 C209.196362,119.065445 211.087554,117.171823 211.087554,113.384581 C211.087554,109.597338 209.196362,107.703716 205.413979,107.703716 L205.413979,107.703716 L144.535619,107.703716 L144.535619,64.9619774 L184.160587,64.9619774 C187.94297,64.9619774 189.834162,63.0683561 189.834162,59.2811134 C189.834162,55.4938707 187.94297,53.6002493 184.160587,53.6002493 L184.160587,53.6002493 L144.535619,53.6002493 L144.535619,12.211097 L205.413979,12.211097 C209.196362,12.211097 211.087554,10.3174756 211.087554,6.53023291 C211.087554,2.74299021 209.196362,0.849368862 205.413979,0.849368862 L205.413979,0.849368862 L138.862044,0.849368862 C135.07966,0.849368862 133.188469,2.74299021 133.188469,6.53023291 L133.188469,6.53023291 L133.188469,113.384581 C133.188469,117.171823 135.07966,119.065445 138.862044,119.065445 L138.862044,119.065445 L205.413979,119.065445 Z M306.007364,116.360271 C308.168726,119.426134 310.780371,119.907054 313.842301,117.80303 C316.964268,115.518662 317.44457,112.843546 315.283208,109.777683 L315.283208,109.777683 L279.080397,59.0105961 L314.562755,10.1371307 C316.784154,7.13138255 316.363889,4.51638164 313.30196,2.29212799 C310.360106,0.00775937293 307.718442,0.398506636 305.376966,3.46436977 L305.376966,3.46436977 L272.055971,49.1817995 L239.545485,3.55454222 C237.384124,0.428564117 234.742459,-0.0523555906 231.620492,2.1117831 C228.6186,4.39615171 228.138298,7.0412101 230.179584,10.0469583 L230.179584,10.0469583 L264.581261,58.3793889 L229.45913,109.867855 C227.417844,113.053948 227.898146,115.699007 230.900038,117.80303 C234.082043,119.846939 236.723707,119.366019 238.825031,116.360271 L238.825031,116.360271 L271.605687,68.2081855 L306.007364,116.360271 Z M435.32885,119.065445 C436.949872,119.065445 438.300723,118.52441 439.381404,117.442341 C440.462085,116.360271 441.002425,115.007685 441.002425,113.384581 L441.002425,113.384581 L441.002425,6.53023291 C441.002425,4.9071289 440.462085,3.55454222 439.381404,2.47247288 C438.300723,1.39040353 436.949872,0.849368862 435.32885,0.849368862 C433.707829,0.849368862 432.356978,1.39040353 431.276297,2.47247288 C430.195616,3.55454222 429.655275,4.9071289 429.655275,6.53023291 L429.655275,6.53023291 L429.655275,53.5100769 L354.81812,53.5100769 L354.81812,6.53023291 C354.81812,4.9071289 354.277779,3.55454222 353.197098,2.47247288 C352.116417,1.39040353 350.765566,0.849368862 349.144545,0.849368862 C347.523523,0.849368862 346.172672,1.39040353 345.091991,2.47247288 C344.01131,3.55454222 343.47097,4.9071289 343.47097,6.53023291 L343.47097,6.53023291 L343.47097,113.384581 C343.47097,115.007685 344.01131,116.360271 345.091991,117.442341 C346.172672,118.52441 347.523523,119.065445 349.144545,119.065445 C350.765566,119.065445 352.116417,118.52441 353.197098,117.442341 C354.277779,116.360271 354.81812,115.007685 354.81812,113.384581 L354.81812,113.384581 L354.81812,64.871805 L429.655275,64.871805 L429.655275,113.384581 C429.655275,115.007685 430.195616,116.360271 431.276297,117.442341 C432.356978,118.52441 433.707829,119.065445 435.32885,119.065445 Z M535.111725,119.065445 C548.440123,119.065445 558.181261,115.969524 564.335139,109.777683 C570.489016,103.585841 573.565955,93.8472174 573.565955,80.5618105 L573.565955,80.5618105 L573.565955,6.53023291 C573.565955,4.72678401 573.070643,3.32911111 572.080019,2.33721421 C571.089394,1.34531731 569.693515,0.849368862 567.89238,0.849368862 C566.091245,0.849368862 564.695366,1.34531731 563.704741,2.33721421 C562.714117,3.32911111 562.218805,4.72678401 562.218805,6.53023291 L562.218805,6.53023291 L562.218805,80.5618105 C562.218805,87.2946864 561.363266,92.6449181 559.652188,96.6125057 C557.94111,100.580093 555.119332,103.420525 551.186854,105.133802 C547.254376,106.847078 541.895999,107.703716 535.111725,107.703716 L535.111725,107.703716 L513.498106,107.703716 C506.773869,107.703716 501.430502,106.847078 497.468005,105.133802 C493.505508,103.420525 490.668721,100.580093 488.957642,96.6125057 C487.246564,92.6449181 486.391025,87.2946864 486.391025,80.5618105 L486.391025,80.5618105 L486.391025,6.53023291 C486.391025,4.72678401 485.895713,3.32911111 484.905089,2.33721421 C483.914465,1.34531731 482.518585,0.849368862 480.71745,0.849368862 C478.916315,0.849368862 477.520436,1.34531731 476.529812,2.33721421 C475.539187,3.32911111 475.043875,4.72678401 475.043875,6.53023291 L475.043875,6.53023291 L475.043875,80.5618105 C475.043875,93.8472174 478.135824,103.585841 484.31972,109.777683 C490.503617,115.969524 500.229745,119.065445 513.498106,119.065445 L513.498106,119.065445 L535.111725,119.065445 Z M662.632076,119.065445 C673.138697,119.065445 681.123728,116.345242 686.587171,110.904838 C692.050613,105.464434 694.782335,97.5142302 694.782335,87.0542265 L694.782335,87.0542265 L694.782335,81.1930176 C694.782335,66.8255413 689.709138,57.2973196 679.562745,52.6083524 C685.266338,48.5806499 688.118135,42.0581763 688.118135,33.0409318 L688.118135,33.0409318 L688.118135,28.1716198 C688.118135,19.2746052 685.746641,12.496643 681.003653,7.83773337 C676.260664,3.1788237 669.356313,0.849368862 660.290601,0.849368862 L660.290601,0.849368862 L613.28098,0.849368862 C609.498596,0.849368862 607.607405,2.74299021 607.607405,6.53023291 L607.607405,6.53023291 L607.607405,113.384581 C607.607405,117.171823 609.498596,119.065445 613.28098,119.065445 L613.28098,119.065445 L662.632076,119.065445 Z M662.271849,49.3621444 L618.954555,49.3621444 L618.954555,12.211097 L660.290601,12.211097 C666.234346,12.211097 670.467013,13.428425 672.988602,15.863081 C675.510191,18.297737 676.770985,22.4005833 676.770985,28.1716198 L676.770985,28.1716198 L676.770985,33.0409318 C676.770985,38.3911636 675.645276,42.4489236 673.393858,45.2142119 C671.142439,47.9795002 667.435103,49.3621444 662.271849,49.3621444 L662.271849,49.3621444 Z M662.632076,107.703716 L618.954555,107.703716 L618.954555,60.7238725 L662.632076,60.7238725 C670.076767,60.7238725 675.405125,62.316919 678.617149,65.5030121 C681.829173,68.6891052 683.435185,73.919107 683.435185,81.1930176 L683.435185,81.1930176 L683.435185,87.0542265 C683.435185,94.2680221 681.814163,99.5130527 678.57212,102.789318 C675.330078,106.065584 670.01673,107.703716 662.632076,107.703716 L662.632076,107.703716 Z" id="path-2"></path>
    </defs>
    <g id="Page-1" stroke="none" stroke-width="1" fill="none" fill-rule="evenodd">
        <g filter="url(#filter-1)" id="hexhub-logo">
            <g transform="translate(1.000000, 1.000000)">
                <g id="cpnJon0lU" transform="translate(251.000000, 51.000000)" fill="#000000" fill-rule="nonzero">
                    <g id="HEXHUB" transform="translate(0.125688, 0.810969)">
                        <use xlink:href="#path-2"></use>
                        <use xlink:href="#path-2"></use>
                    </g>
                </g>
                <g id="Group" fill="#000000" fill-rule="nonzero">
                    <g id="g3m0GRSGs-link">
                        <path d="M39.33,33.78 C36.78,35.25 24,42.63 1.01,55.91 L0.9,110.89 L0.83,165.9 C10.2,171.3 15.41,174.3 16.45,174.9 C34.81,185.48 89.46,217.03 94.34,219.88 C94.57,220.01 95.7,220.66 97.75,221.84 C124.69,206.29 139.66,197.65 142.65,195.92 C167.38,181.67 189.11,169.16 190.93,168.08 C191.15,167.96 192.26,167.31 194.26,166.16 L194.37,111 L194.44,55.84 C165.5,39.14 149.42,29.86 146.21,28 C119.66,12.67 97.86,0.16 97.78,0.16 C97.71,0.16 93.12,2.75 87.64,5.9 C82.13,9.05 60.39,21.6 39.33,33.78 Z M171.31,66.72 L171.31,110.89 L171.31,155.09 L134.55,176.3 L97.82,197.48 L61.06,176.3 L24.34,155.09 L24.34,110.89 L24.34,66.72 C44.11,55.31 55.09,48.96 57.29,47.7 C75.42,37.22 91.9,27.67 93.93,26.45 C95.97,25.26 97.82,24.34 98.01,24.41 C98.23,24.45 114.78,34 134.84,45.62 C139.7,48.44 151.86,55.47 171.31,66.72 Z" id="g3m0GRSGs"></path>
                    </g>
                    <g id="g3m0GRSGs-link" fill-opacity="0" stroke="#000000" stroke-opacity="0">
                        <path d="M39.33,33.78 C36.78,35.25 24,42.63 1.01,55.91 L0.9,110.89 L0.83,165.9 C10.2,171.3 15.41,174.3 16.45,174.9 C34.81,185.48 89.46,217.03 94.34,219.88 C94.57,220.01 95.7,220.66 97.75,221.84 C124.69,206.29 139.66,197.65 142.65,195.92 C167.38,181.67 189.11,169.16 190.93,168.08 C191.15,167.96 192.26,167.31 194.26,166.16 L194.37,111 L194.44,55.84 C165.5,39.14 149.42,29.86 146.21,28 C119.66,12.67 97.86,0.16 97.78,0.16 C97.71,0.16 93.12,2.75 87.64,5.9 C82.13,9.05 60.39,21.6 39.33,33.78 Z M171.31,66.72 L171.31,110.89 L171.31,155.09 L134.55,176.3 L97.82,197.48 L61.06,176.3 L24.34,155.09 L24.34,110.89 L24.34,66.72 C44.11,55.31 55.09,48.96 57.29,47.7 C75.42,37.22 91.9,27.67 93.93,26.45 C95.97,25.26 97.82,24.34 98.01,24.41 C98.23,24.45 114.78,34 134.84,45.62 C139.7,48.44 151.86,55.47 171.31,66.72 Z" id="g3m0GRSGs"></path>
                    </g>
                </g>
                <g id="Group" transform="translate(64.000000, 77.000000)" fill="#000000" fill-rule="nonzero">
                    <g id="b8Fe9cY5AV-link">
                        <polygon id="b8Fe9cY5AV" points="0.02 15.68 6.98 22.89 13.94 30.15 21.83 30.15 29.75 30.15 29.75 22.26 29.75 14.42 22.6 7.27 15.5 0.16 7.76 7.9"></polygon>
                    </g>
                    <g id="b8Fe9cY5AV-link" fill-opacity="0" stroke="#000000" stroke-opacity="0">
                        <polygon id="b8Fe9cY5AV" points="0.02 15.68 6.98 22.89 13.94 30.15 21.83 30.15 29.75 30.15 29.75 22.26 29.75 14.42 22.6 7.27 15.5 0.16 7.76 7.9"></polygon>
                    </g>
                </g>
                <g id="Group" transform="translate(101.000000, 77.000000)" fill="#000000" fill-rule="nonzero">
                    <g id="c4evbBElh7-link">
                        <polygon id="c4evbBElh7" points="0.89 14.42 0.89 22.3 0.89 30.15 8.78 30.11 16.63 30.08 23.66 22.89 30.66 15.68 22.88 7.94 15.15 0.16 8 7.31"></polygon>
                    </g>
                    <g id="c4evbBElh7-link" fill-opacity="0" stroke="#000000" stroke-opacity="0">
                        <polygon id="c4evbBElh7" points="0.89 14.42 0.89 22.3 0.89 30.15 8.78 30.11 16.63 30.08 23.66 22.89 30.66 15.68 22.88 7.94 15.15 0.16 8 7.31"></polygon>
                    </g>
                </g>
                <g id="Group" transform="translate(63.000000, 114.000000)" fill="#000000" fill-rule="nonzero">
                    <g id="d4s9pNPfY-link">
                        <polygon id="d4s9pNPfY" points="0.95 15.36 8.83 23.25 16.72 31.1 23.75 23.99 30.75 16.84 30.75 8.88 30.75 0.92 23.05 0.92 15.39 0.92 8.17 8.14"></polygon>
                    </g>
                    <g id="d4s9pNPfY-link" fill-opacity="0" stroke="#000000" stroke-opacity="0">
                        <polygon id="d4s9pNPfY" points="0.95 15.36 8.83 23.25 16.72 31.1 23.75 23.99 30.75 16.84 30.75 8.88 30.75 0.92 23.05 0.92 15.39 0.92 8.17 8.14"></polygon>
                    </g>
                </g>
                <g id="Group" transform="translate(101.000000, 114.000000)" fill="#000000" fill-rule="nonzero">
                    <g id="i4QhRYcIQ-link">
                        <polygon id="i4QhRYcIQ" points="0.93 16.66 7.96 23.84 15.04 31.02 22.85 23.21 30.7 15.36 23.48 8.14 16.26 0.92 8.59 0.92 0.89 0.92 0.89 8.77"></polygon>
                    </g>
                    <g id="i4QhRYcIQ-link" fill-opacity="0" stroke="#000000" stroke-opacity="0">
                        <polygon id="i4QhRYcIQ" points="0.93 16.66 7.96 23.84 15.04 31.02 22.85 23.21 30.7 15.36 23.48 8.14 16.26 0.92 8.59 0.92 0.89 0.92 0.89 8.77"></polygon>
                    </g>
                </g>
            </g>
        </g>
    </g>
</svg>